<svg width="66" height="52" viewBox="0 0 66 52" fill="none" xmlns="http://www.w3.org/2000/svg">
<path d="M8.78613 0.107422H57.2139C60.1212 0.107422 62.2863 0.837022 63.7246 2.27148C65.1628 3.70587 65.8926 5.86265 65.8926 8.75488V43.2441C65.8925 46.1363 65.1628 48.2932 63.7246 49.7275C62.2863 51.1619 60.1212 51.8916 57.2139 51.8916H8.78613C5.89307 51.8916 3.72803 51.169 2.28613 49.7383C0.844417 48.3076 0.107448 46.1511 0.107422 43.2451V8.75488C0.107448 5.84965 0.844534 3.69364 2.28613 2.2627C3.72804 0.831575 5.89298 0.108021 8.78613 0.107422ZM8.86914 4.44238C7.45203 4.4424 6.33002 4.8214 5.5625 5.58887C4.79494 6.35658 4.39746 7.49708 4.39746 8.98438V40.3779L4.57715 40.2148L12.9424 32.6191C14.0741 31.5873 15.253 31.0646 16.4512 31.0645C17.7602 31.0645 18.9957 31.6155 20.1572 32.6475L25.332 37.3926L25.4043 37.458L25.4766 37.3926L38.1201 25.9814L38.1211 25.9824C39.3898 24.8407 40.7365 24.3135 42.2754 24.3135C43.7551 24.3136 45.1568 24.8956 46.3994 26.0098L61.4209 40.2441L61.6025 40.415V8.98438C61.6025 7.49657 61.1978 6.35636 60.4268 5.58887C59.6558 4.8216 58.534 4.4424 57.1309 4.44238H8.86914ZM20.8438 13.0176C24.3925 13.0178 27.3113 15.9901 27.3115 19.5752C27.3115 23.1891 24.3929 26.1335 20.8438 26.1338C19.1225 26.1307 17.4722 25.4391 16.2549 24.21C15.0375 22.9807 14.3524 21.3139 14.3496 19.5752C14.3498 15.9903 17.2683 13.0176 20.8438 13.0176Z" fill="url(#paint0_linear_33_8055)" stroke="#FFAB80" stroke-width="0.214286"/>
<defs>
<linearGradient id="paint0_linear_33_8055" x1="0" y1="0" x2="60" y2="49" gradientUnits="userSpaceOnUse">
<stop stop-color="#FFB957"/>
<stop offset="1" stop-color="#FF8E57"/>
</linearGradient>
</defs>
</svg>
